<?xml version="1.0" encoding="utf-8"?>
<!-- Uploaded to: SVG Repo, www.svgrepo.com, Generator: SVG Repo Mixer Tools -->
<svg width="800px" height="800px" viewBox="-54.58 0 337.122 337.122" xmlns="http://www.w3.org/2000/svg"><defs><style>.a{fill:#ffffff;}.b{fill:#211715;}.c{fill:#ffda71;}.d{fill:#85807f;}.e{fill:none;}.f{fill:#74c66d;}.g{fill:#febe69;}.h{fill:#f2635f;}.i{fill:#ad7b59;}.j{fill:#acdda7;}</style></defs><path class="a" d="M137.443,146.178c2.2,2.465,4.92,6.077,7.076,8.573,1.269,1.47,2.2,4.168,1.48,6.115-.828,1.654-3.537,12.939-6.969,20.436-6.907-3.273-19.2-15.425-23.057-19.768C117.42,160.509,136.507,146.936,137.443,146.178Z"/><path class="a" d="M90.771,146.178c-2.2,2.465-4.92,6.077-7.075,8.573-1.269,1.47-2.2,4.168-1.481,6.115.828,1.654,3.487,12.939,6.919,20.436,6.908-3.273,19.247-15.425,23.107-19.768C110.794,160.509,91.707,146.936,90.771,146.178Z"/><path class="a" d="M34.214,312.486C25.737,309.217,11.46,299.447,7.2,291.51A38.822,38.822,0,0,1,3.02,266.073c5-21.542,5.957-30.566,12.174-57.929A45.678,45.678,0,0,1,29.2,183.42a46.266,46.266,0,0,1,9.056-6.023c7.6-3.871,23.628-10.293,37.431-15.971l3.889-1.565,2.4-.966a4.609,4.609,0,0,0,.233,1.971c.828,1.654,3.487,12.939,6.919,20.436,6.908-3.273,19.247-15.425,23.107-19.768h3.732c3.86,4.343,16.15,16.5,23.057,19.768,3.432-7.5,6.141-18.782,6.969-20.436a4.566,4.566,0,0,0,.241-1.873l2.155.868,3.889,1.565c13.8,5.678,29.827,12.1,37.431,15.971a46.269,46.269,0,0,1,9.057,6.023,45.676,45.676,0,0,1,14.008,24.724c6.217,27.363,7.177,36.387,12.174,57.929a38.828,38.828,0,0,1-4.174,25.437c-4.266,7.937-18.542,17.707-27.02,20.976Z"/><path class="b" d="M78.941,157.547c-12.569,5.056-25.218,10.042-37.536,15.69-6.008,2.754-11.675,5.98-16.261,10.829a48.382,48.382,0,0,0-11.087,18.952c-1.238,3.992-2.01,8.141-2.9,12.22q-1.2,5.484-2.333,10.983c-1.215,5.9-2.356,11.812-3.525,17.719-1.189,6.007-2.434,12-3.784,17.976a47.492,47.492,0,0,0-1.491,12.32A41.092,41.092,0,0,0,2.1,285.706a35.287,35.287,0,0,0,4.016,8.64,39.715,39.715,0,0,0,6.488,7.18,76.36,76.36,0,0,0,16.98,11.518q1.958.963,3.993,1.756a2.418,2.418,0,0,0,2.952-1.676,2.456,2.456,0,0,0-1.676-2.953,65.239,65.239,0,0,1-15.5-9.243c-4.79-3.73-8.969-7.832-11.447-13.42a34.806,34.806,0,0,1-2.435-21.367q2.072-8.967,3.873-17.991c2.574-12.82,5.064-25.648,7.95-38.4,1.558-6.886,4.008-13.337,8.376-18.962a36.917,36.917,0,0,1,7.277-7.335,52.976,52.976,0,0,1,7.681-4.555c5.943-2.912,12.086-5.428,18.2-7.962,6.4-2.653,12.8-5.3,19.229-7.884l2.168-.872a2.475,2.475,0,0,0,1.676-2.953,2.415,2.415,0,0,0-2.952-1.676Z"/><path class="b" d="M147.757,162.176c12.037,4.841,24.14,9.625,35.949,15,5.534,2.521,10.9,5.321,15.193,9.721a43.213,43.213,0,0,1,10.39,17.393c1.2,3.854,1.945,7.855,2.809,11.793q1.173,5.346,2.282,10.706c1.2,5.792,2.323,11.6,3.468,17.4,1.123,5.7,2.288,11.387,3.55,17.056a54.49,54.49,0,0,1,1.776,11.015,36.066,36.066,0,0,1-1.532,10.917,33.014,33.014,0,0,1-3.544,8.158,31.97,31.97,0,0,1-5.594,6.317,71.685,71.685,0,0,1-15.972,10.962c-1.174.594-2.337,1.135-3.41,1.553a2.472,2.472,0,0,0-1.676,2.953A2.417,2.417,0,0,0,194.4,314.8a69.277,69.277,0,0,0,16.844-9.876c5.072-3.907,9.874-8.344,12.626-14.225a41.447,41.447,0,0,0,3.742-23.07c-.483-3.6-1.482-7.151-2.253-10.7q-.961-4.426-1.856-8.868c-2.655-13.132-5.18-26.28-8.134-39.35-1.668-7.376-4.321-14.327-8.942-20.385a43.545,43.545,0,0,0-7.691-8.054,49.92,49.92,0,0,0-8.371-5.228c-6.23-3.109-12.711-5.738-19.138-8.408-6.661-2.767-13.331-5.522-20.023-8.214l-2.169-.872a2.416,2.416,0,0,0-2.952,1.676,2.46,2.46,0,0,0,1.676,2.953Z"/><path class="c" d="M150.33,131.68c18.254-2.851,32.911-5.57,48.33-16.214,7.359-5.081,14.7-15.32,14.7-23.656,0-9.392-2.813-18.535-10.959-26.4a82.832,82.832,0,0,0-28.247-17.727c-.73-2.264-1.281-3.979-1.281-3.979-2.325-6.58-9.242-19.7-20.11-28.7-9.048-7.487-26.172-13.18-39.33-12.564C100.274,1.828,83.146,7.522,74.1,15.01,63.229,24,56.312,37.128,53.986,43.708l-1.68,4.143A82.525,82.525,0,0,0,24.458,65.414c-8.145,7.861-11.3,16.592-11.3,25.985,0,8.335,7.68,18.986,15.04,24.067C43.62,126.11,58.277,128.829,76.531,131.68"/><path class="a" d="M170.759,87.668a6.61,6.61,0,0,0-5.938-3.3,6.987,6.987,0,0,0-5.467,2.234c1.87-3.734,3.382-7.238,2.9-11.153a15.652,15.652,0,0,0-6.218-10.485,38.819,38.819,0,0,0-15.078-6.714c-7.4-1.65-16.878-2.155-26.877-2.389-10,.234-19.476.739-26.876,2.389a38.819,38.819,0,0,0-15.078,6.714A15.657,15.657,0,0,0,65.912,75.45c-.473,3.875,1,7.347,2.848,11.039a7.026,7.026,0,0,0-5.367-2.12,6.61,6.61,0,0,0-5.938,3.3c-2.017,3.5-1.932,9.946-.578,13.935.959,2.825,2.531,7.147,6.318,10.246a7.7,7.7,0,0,0,6.55,1.64,54.166,54.166,0,0,0,10.279,19.393c4.485,5.369,9.21,9.279,14.524,11.593h-.01c-.118,1.372-.292,2.694-.51,4.069,5.746,4.127,17.11,12.207,18.213,12.989h3.732c1.228-.87,15.156-10.773,19.92-14.217-.152-1.031-.268-2.064-.359-3.1l-1.111.007c11.264-5.273,20.289-20.754,21.878-25.069a45.947,45.947,0,0,0,2.083-5.653l.581.1a7.85,7.85,0,0,0,6.054-1.748c3.788-3.1,5.359-7.421,6.318-10.246C172.691,97.614,172.776,91.167,170.759,87.668Z"/><path class="d" d="M122.506,59.873c-6.064,2.555-14.616,7.921-19.415,10.587A1.642,1.642,0,0,1,100.75,68.7a8.659,8.659,0,0,0-.207-3.154c-.32-1.318-1.332-1.877-2.12-1.464-6.724,3.527-16.3,12.644-21.732,18.692l-8.012,3.555c-1.806-3.631-3.233-7.058-2.767-10.876a15.657,15.657,0,0,1,6.219-10.485,38.821,38.821,0,0,1,15.077-6.714c7.4-1.65,16.878-2.155,26.877-2.389,10,.234,19.477.739,26.877,2.389a38.819,38.819,0,0,1,15.078,6.714,15.652,15.652,0,0,1,6.218,10.485c.467,3.818-.96,7.245-2.766,10.876l-6.7-3.168c-2.318-5.832-7.551-12.275-13.009-16.972a29.045,29.045,0,0,0-8.282-5.209Z"/><path class="b" d="M56.3,44.346a40.258,40.258,0,0,1,1.871-4.435c.936-1.954,1.964-3.864,3.067-5.73a71.032,71.032,0,0,1,9.086-12.29A46.254,46.254,0,0,1,82.052,12.6,65.036,65.036,0,0,1,96.459,6.94,57.822,57.822,0,0,1,111.666,4.8a73.647,73.647,0,0,1,14.909,1.226c9.767,2.044,19.581,5.964,26.954,12.847a67.572,67.572,0,0,1,11.19,13.814c1.322,2.13,2.547,4.321,3.653,6.57a43.081,43.081,0,0,1,2.189,5.089,2.461,2.461,0,0,0,2.952,1.676,2.421,2.421,0,0,0,1.677-2.952A72.72,72.72,0,0,0,159.932,18.5a50.43,50.43,0,0,0-12.7-10.043,70.571,70.571,0,0,0-15.551-6.142A62.833,62.833,0,0,0,115.2,0,79.856,79.856,0,0,0,99.016,1.4c-10.587,2.221-21.1,6.637-29.077,14.082A71.6,71.6,0,0,0,51.672,43.07a2.422,2.422,0,0,0,1.676,2.952A2.447,2.447,0,0,0,56.3,44.346Z"/><path class="b" d="M77.169,129.366c-13.106-2.05-26.394-4.315-38.345-10.363-5.863-2.967-11.426-6.477-15.755-11.482-3.615-4.179-7.236-9.793-7.492-15.485a31.361,31.361,0,0,1,4.4-17.267c3.4-5.7,8.583-10.305,13.9-14.2,10.29-7.535,22.2-12.283,34.57-15.138,12.99-3,26.344-4,39.638-4.436,6.7-.218,13.394.027,20.087.425,6.618.392,13.234.991,19.787,2.011,12.558,1.954,25.02,5.359,36.2,11.521,11.111,6.124,22.574,14.981,25.765,27.858a36.155,36.155,0,0,1,1.033,9,19.015,19.015,0,0,1-2.124,8.077,36.184,36.184,0,0,1-12.118,14,78.055,78.055,0,0,1-17.921,9.033,125.716,125.716,0,0,1-19.114,4.786c-3.322.6-6.657,1.135-9.993,1.657a2.416,2.416,0,0,0-1.676,2.952,2.459,2.459,0,0,0,2.952,1.676c13.836-2.163,27.664-4.7,40.214-11.216,6.187-3.212,12.084-7.1,16.556-12.513,4.216-5.1,7.917-11.492,8.023-18.29a38.685,38.685,0,0,0-4.728-19.35c-3.549-6.355-9.087-11.289-14.842-15.613-10.754-8.081-23.458-13.2-36.5-16.207-13.666-3.153-27.75-4.2-41.736-4.633-7.032-.216-14.077.1-21.095.565s-14.047,1.193-21,2.352c-13.3,2.22-26.458,6.213-38.091,13.16S14.564,69.187,11.63,83.031a33.414,33.414,0,0,0-.809,9.651,26.271,26.271,0,0,0,2.807,9.312,41.846,41.846,0,0,0,13.083,15.348c11.478,8.145,24.878,12.365,38.587,14.886,3.521.647,7.058,1.213,10.6,1.766a2.476,2.476,0,0,0,2.953-1.676,2.418,2.418,0,0,0-1.677-2.952Z"/><path class="e" d="M73.611,164.6c.873-.291,15.038-6.917,15.329-7.024,4.482-1.62,4.288-4.492,4.871-7.713.32-1.863.572-3.58.727-5.385"/><path class="e" d="M135.534,144.214c.165,1.891.417,3.764.747,5.646.563,3.221.388,6.093,4.87,7.713.292.107,12.991,6.151,13.447,6.336"/><path class="b" d="M156.93,109.516a56.713,56.713,0,0,1-3.1,9.392c-.11.277.213-.482.083-.2-.041.09-.078.182-.12.271-.079.17-.156.342-.236.511-.227.478-.466.95-.713,1.419-.556,1.057-1.151,2.093-1.771,3.113A56.831,56.831,0,0,1,138.9,138.542a22.525,22.525,0,0,1-9.131,4.765c-3.008.7-1.735,5.325,1.276,4.629,6.928-1.6,12.7-6.654,17.22-11.912a61.729,61.729,0,0,0,9.677-14.618q.231-.516.445-1.038c.062-.153.348-.82.074-.19.382-.878.756-1.758,1.092-2.655a45.052,45.052,0,0,0,2-6.731,2.459,2.459,0,0,0-1.676-2.953,2.424,2.424,0,0,0-2.952,1.677Z"/><path class="b" d="M66.525,110.63a57.192,57.192,0,0,0,8.035,18.915c4.125,6.213,9.55,12.031,16.119,15.687a31.938,31.938,0,0,0,10.844,3.707,2.48,2.48,0,0,0,2.953-1.677,2.418,2.418,0,0,0-1.677-2.952c-13.455-1.991-23.5-13.612-28.634-25.559a54.044,54.044,0,0,1-3.011-9.4c-.683-3.012-5.312-1.737-4.629,1.276Z"/><path class="b" d="M161.369,87.951a5.1,5.1,0,0,1,7.067.5c-.341-.419.113.2.169.286a6.833,6.833,0,0,1,.371.669,10.565,10.565,0,0,1,.655,2.245,18.863,18.863,0,0,1,.229,5.033,21.79,21.79,0,0,1-2.529,8.414c-1.413,2.709-4.158,6.662-7.728,6.181a2.484,2.484,0,0,0-2.952,1.677,2.417,2.417,0,0,0,1.676,2.952c8.378,1.127,13.252-7.04,15.421-13.966a24.075,24.075,0,0,0,.637-10.87,10.941,10.941,0,0,0-4.253-7.52,10.061,10.061,0,0,0-12.157,1c-2.3,2.072,1.1,5.458,3.394,3.394Z"/><path class="b" d="M70.239,84.557A10.154,10.154,0,0,0,59.06,82.991,9.777,9.777,0,0,0,54.108,89.7c-1.67,6.621.03,14.237,3.836,19.848,2.79,4.114,6.782,7.054,11.943,6.36a2.413,2.413,0,0,0,1.676-2.952,2.466,2.466,0,0,0-2.952-1.677c-3.51.473-6.23-3.361-7.647-6.026a21.829,21.829,0,0,1-2.61-8.569c-.186-2.668.006-6.385,1.489-8.315-.167.217.327-.351.384-.409a1.625,1.625,0,0,1,.5-.414,4.751,4.751,0,0,1,1.745-.683,5.049,5.049,0,0,1,4.372,1.085c2.29,2.063,5.7-1.321,3.394-3.394Z"/><path class="b" d="M105.608,124.805a18.65,18.65,0,0,0,8.981,2.081,14.628,14.628,0,0,0,9.078-2.684,2.4,2.4,0,0,0,0-3.394,2.474,2.474,0,0,0-3.394,0c.732-.571.18-.146-.008-.025s-.364.221-.553.32c-.1.051-.2.1-.3.147-.312.161-.126-.084.112-.038-.159-.031-.6.225-.763.277a13.57,13.57,0,0,1-2.134.488c.36-.055-.022,0-.183.014-.209.021-.419.039-.629.052-.505.033-1.011.046-1.517.043q-.68,0-1.358-.049-.312-.021-.623-.052c-.04,0-.79-.12-.28-.03a17.583,17.583,0,0,1-1.993-.442c-.28-.084-.552-.184-.828-.278-.607-.208.372.19-.176-.069q-.513-.242-1.013-.5a2.4,2.4,0,1,0-2.423,4.144Z"/><path class="b" d="M113.334,103.694a42,42,0,0,1,.988,4.518l-.086-.638a2.763,2.763,0,0,1,.017.623l.086-.638a1.517,1.517,0,0,1-.069.281l.242-.573a1.125,1.125,0,0,1-.1.18l.375-.486a.923.923,0,0,1-.147.146l.485-.376a2.838,2.838,0,0,1-.357.19l.573-.242a2.64,2.64,0,0,1-.6.176l.638-.086a2.39,2.39,0,0,1-.567,0l.639.086c-.214-.03-.423-.082-.637-.111a1.812,1.812,0,0,0-.957-.042,1.783,1.783,0,0,0-.892.284,2.4,2.4,0,0,0-.861,3.284,2.3,2.3,0,0,0,1.434,1.1c.493.066.972.192,1.474.214a4.715,4.715,0,0,0,2.181-.521,3.162,3.162,0,0,0,1.75-2.085,5.2,5.2,0,0,0-.022-2.237c-.246-1.455-.582-2.9-.956-4.325a2.4,2.4,0,1,0-4.629,1.276Z"/><path class="b" d="M89.524,90.876c-.754,2.452-.262,8.092,4.383,8.573,6.139-.037,6.466-6.857,4.4-10.063C96.614,86.761,91.638,85.669,89.524,90.876Z"/><path class="b" d="M138.69,90.876c.754,2.452.263,8.093-4.382,8.573-6.14-.037-6.467-6.857-4.4-10.063C131.6,86.761,136.575,85.669,138.69,90.876Z"/><path class="b" d="M111.7,164.6v39.028c0,3.089,4.8,3.094,4.8,0V164.6c0-3.088-4.8-3.093-4.8,0Z"/><path class="b" d="M135.746,147.875c1.23,1.387,2.394,2.83,3.556,4.275s2.432,2.816,3.52,4.3a5.459,5.459,0,0,1,.869,1.82,7.09,7.09,0,0,1,.159,1.211c.015.143-.081.718.041.251-.218.832-.649,1.666-.906,2.5-1.859,6-3.428,12.13-6.027,17.864l3.284-.861c-4.593-2.216-8.566-5.831-12.313-9.223a135.593,135.593,0,0,1-10.259-10.17l-.486,3.77q9.357-6.635,18.677-13.322c1.1-.791,2.219-1.565,3.28-2.41a2.416,2.416,0,0,0,0-3.394,2.46,2.46,0,0,0-3.395,0c.789-.629,0-.008-.34.238q-.834.608-1.671,1.208-2.427,1.748-4.863,3.484-5.484,3.918-10.978,7.825-1.566,1.113-3.133,2.226a2.445,2.445,0,0,0-.485,3.769,135.756,135.756,0,0,0,10.514,10.4c3.958,3.567,8.19,7.408,13.029,9.744,1.073.517,2.716.392,3.284-.861,2.866-6.324,4.575-13.013,6.694-19.6.125-.385.287-.765.4-1.152-.137.459-.186.6.115-.26a6.832,6.832,0,0,0,.314-1.665A9.41,9.41,0,0,0,147,154.073c-1.107-1.644-2.539-3.12-3.78-4.665-1.336-1.662-2.665-3.331-4.079-4.927C137.087,142.165,133.7,145.57,135.746,147.875Z"/><path class="b" d="M89.074,144.481c-1.415,1.6-2.744,3.265-4.08,4.927-1.24,1.544-2.674,3.022-3.78,4.665a9.4,9.4,0,0,0-1.628,5.766A6.786,6.786,0,0,0,79.9,161.5c.13.372.351,1.083.114.26.112.387.276.767.4,1.152,2.1,6.587,3.784,13.276,6.648,19.6.564,1.244,2.218,1.375,3.284.861,4.845-2.338,9.085-6.178,13.054-9.744a134.666,134.666,0,0,0,10.539-10.4,2.445,2.445,0,0,0-.486-3.769q-9.242-6.552-18.447-13.156-.98-.705-1.956-1.412c-.226-.163-.451-.329-.676-.493-.424-.308-.22-.17.094.08a2.475,2.475,0,0,0-3.394,0,2.417,2.417,0,0,0,0,3.394c2.454,1.956,5.088,3.71,7.64,5.534q5.547,3.963,11.1,7.914,1.605,1.143,3.212,2.284l-.486-3.77a134.069,134.069,0,0,1-10.283,10.17c-3.757,3.391-7.739,7-12.338,9.223l3.284.861c-2.6-5.731-4.142-11.868-5.982-17.864-.256-.833-.682-1.664-.9-2.5.127.481.034-.181.041-.251a7.309,7.309,0,0,1,.159-1.211,5.4,5.4,0,0,1,.87-1.82c2.2-2.939,4.638-5.825,7.075-8.573C94.511,145.571,91.128,142.164,89.074,144.481Z"/><path class="a" d="M158.816,147.437c4.412,3.688,8.714,10.13,11.272,16.074,6.958,16.172,11.794,39.891,10.323,66.194a8.038,8.038,0,0,1-2.747,5.888c-1.568,1.225-3.71,1.347-5.7,1.333a71.384,71.384,0,0,1-21.7-3.539c-1.544-.506-3.2-1.167-4-2.582a6.994,6.994,0,0,1-.411-4.227q2.148-19.451,3.8-38.953a262.648,262.648,0,0,0,.49-31.416"/><path class="a" d="M69.385,147.437c-4.412,3.688-8.714,10.13-11.272,16.074-6.959,16.172-11.794,39.891-10.324,66.194a8.039,8.039,0,0,0,2.748,5.888c1.568,1.225,3.71,1.347,5.7,1.333a71.384,71.384,0,0,0,21.7-3.539c1.544-.506,3.2-1.167,4-2.582a6.717,6.717,0,0,0,.411-4.227c-1.825-13.16-2.693-25.953-3.8-38.953a264.924,264.924,0,0,1-.305-31.514"/><path class="b" d="M157.119,149.134c8.858,7.526,12.959,19.413,15.916,30.3a154.742,154.742,0,0,1,5.217,37.981q.091,5.429-.166,10.854c-.118,2.5-.513,5.39-3.364,6.062a16.41,16.41,0,0,1-4.167.177q-2.817-.075-5.623-.373a67.488,67.488,0,0,1-10.432-1.982,34.773,34.773,0,0,1-4.6-1.428c-1.049-.448-1.726-.952-1.774-2.159a32.024,32.024,0,0,1,.423-4.692q.307-2.832.6-5.665,1.186-11.333,2.207-22.682c1.175-13.059,1.949-26.2,1.181-39.313-.18-3.07-4.981-3.091-4.8,0a251.718,251.718,0,0,1-.961,36.846q-1.059,11.967-2.3,23.917-.294,2.833-.6,5.666a44.51,44.51,0,0,0-.556,5.923c.1,3.774,2.6,5.864,5.964,7.029a71.125,71.125,0,0,0,22.2,3.732c3.573.045,7.027-.52,9.279-3.556,2.227-3,2.116-6.8,2.224-10.367a165.114,165.114,0,0,0-4.015-41.989,122.983,122.983,0,0,0-5.825-18.732c-2.846-7-6.814-13.984-12.644-18.938a2.463,2.463,0,0,0-3.394,0,2.421,2.421,0,0,0,0,3.394Z"/><path class="b" d="M67.688,145.74c-9.642,8.192-14.2,21.281-17.349,33.148a161.447,161.447,0,0,0-5.214,41.318,65.886,65.886,0,0,0,.475,11.247,9.127,9.127,0,0,0,6.409,7.457c3.405.9,7.343.411,10.792.068a75.848,75.848,0,0,0,11.268-1.963c3-.768,7.024-1.49,9.173-3.951,2.66-3.046,1.37-7.325.924-10.914-.963-7.763-1.65-15.556-2.294-23.35-.607-7.343-1.28-14.67-1.464-22.038-.172-6.878-.169-13.781.235-20.651.181-3.086-4.62-3.075-4.8,0a239.988,239.988,0,0,0,.51,33.949c.621,7.443,1.192,14.891,1.93,22.324.373,3.752.788,7.5,1.27,11.239a27.964,27.964,0,0,1,.537,4.936c-.062,1.175-.706,1.69-1.75,2.144a46.786,46.786,0,0,1-9.672,2.609,67.272,67.272,0,0,1-10.553,1.177c-2.685.089-5.988.481-7.329-2.4a9.877,9.877,0,0,1-.671-3.829q-.129-2.733-.171-5.471a158.793,158.793,0,0,1,4.127-39.064,122.455,122.455,0,0,1,5.539-17.622c2.551-6.3,6.242-12.529,11.472-16.973a2.421,2.421,0,0,0,0-3.394,2.45,2.45,0,0,0-3.394,0Z"/><path class="b" d="M70.751,85.114c-1.8-3.647-3.239-7.378-2.016-11.443a15.008,15.008,0,0,1,6.657-8.077c6.853-4.414,14.962-5.847,22.949-6.556a180.388,180.388,0,0,1,28.125-.261c8.078.543,16.443,1.488,23.717,5.307,3.687,1.936,7.271,4.526,8.887,8.516,1.774,4.382.338,8.49-1.65,12.514a2.461,2.461,0,0,0,.861,3.284,2.423,2.423,0,0,0,3.284-.861c2.213-4.481,3.887-9.065,2.769-14.11A18.634,18.634,0,0,0,157.1,62.778c-7.406-5.6-16.7-7.488-25.743-8.4a177.037,177.037,0,0,0-30.786-.325c-9.23.682-18.695,2.01-26.762,6.87-4.353,2.621-7.979,6.212-9.595,11.126-1.786,5.432-.03,10.581,2.392,15.484a2.424,2.424,0,0,0,3.284.861,2.45,2.45,0,0,0,.861-3.284Z"/><path class="b" d="M130.287,63.049a36.414,36.414,0,0,1,11.671,8.507,40,40,0,0,1,8.517,12.24,2.476,2.476,0,0,0,2.952,1.676A2.415,2.415,0,0,0,155.1,82.52a45.754,45.754,0,0,0-9.483-14.077,40.189,40.189,0,0,0-12.911-9.538,2.476,2.476,0,0,0-3.283.861,2.416,2.416,0,0,0,.861,3.283Z"/><path class="b" d="M78.388,84.468A102.4,102.4,0,0,1,96.16,68.277c.713-.488,1.438-.959,2.182-1.4a7.48,7.48,0,0,0,1.038-.589,11.565,11.565,0,0,1-1.191-.25c.016-.015.233,1.146.141.607.172,1.013-.092,2.024.1,3.03a4.142,4.142,0,0,0,1.916,2.812c2.066,1.223,3.932.077,5.749-.97,1.695-.975,3.379-1.97,5.07-2.952a115.321,115.321,0,0,1,12.554-6.619,2.414,2.414,0,0,0,.861-3.284A2.463,2.463,0,0,0,121.3,57.8a105.828,105.828,0,0,0-11.208,5.841c-1.814,1.044-3.617,2.107-5.427,3.158-.722.419-1.445.837-2.172,1.247a2.06,2.06,0,0,0-.489.275c-.3.329.443-.124.748.043.56.306.427.46.456-.367.085-2.384-.568-5.452-3.148-6.275-1.955-.624-3.786.752-5.348,1.764a80.128,80.128,0,0,0-9.919,7.82,131.765,131.765,0,0,0-9.794,9.768c-2.062,2.291,1.322,5.7,3.394,3.394Z"/><path class="c" d="M9.593,264.229q-.036-.7-.037-1.409c0-30.962,74.577-35.752,104.544-35.752,26.732,0,104.544,0,104.544,35.752,0,34.875-82.282,38.217-110.11,38.217C81.072,301.037,11.418,299.1,9.593,264.229Z"/><path class="b" d="M221.044,262.82a25.3,25.3,0,0,0-8.006-18.221c-5.517-5.311-12.687-8.658-19.844-11.138a136.906,136.906,0,0,0-25.344-5.788c-8.964-1.289-17.994-2.056-27.038-2.491-14.172-.682-28.442-.789-42.617-.128-18.578.867-37.463,2.775-55.429,7.768-7.872,2.188-15.853,5.02-22.713,9.546-5.613,3.7-10.713,8.846-12.32,15.583a21.519,21.519,0,0,0-.577,4.869c-.015,3.089,4.785,3.093,4.8,0a20.4,20.4,0,0,1,.136-2.251c-.077.665.079-.45.115-.631q.121-.624.288-1.237c.174-.64.391-1.263.625-1.882.217-.575-.217.469.036-.092.074-.165.148-.329.225-.492q.273-.575.583-1.128.493-.882,1.072-1.712c.1-.144.76-1.019.4-.565q.411-.524.85-1.023a29.153,29.153,0,0,1,3.431-3.291c.16-.131.321-.26.482-.389.54-.43-.381.282.175-.135q.425-.318.854-.626,1.152-.822,2.358-1.564c1.565-.969,3.185-1.847,4.839-2.656a79.537,79.537,0,0,1,10.945-4.3c17.3-5.548,35.387-7.591,53.408-8.7,13.817-.849,27.7-.865,41.529-.424,17.2.548,34.2,1.809,50.787,6.281,7.46,2.012,14.183,4.383,20.56,8.753a25.423,25.423,0,0,1,3.551,2.825c.581.537,1.142,1.1,1.677,1.68q.362.394.707.8c.1.123.2.248.309.372.42.5-.013-.039.217.27a23.2,23.2,0,0,1,2.364,3.874c.081.17.158.342.237.513.265.58-.182-.472.053.122.139.352.274.706.4,1.064a21.169,21.169,0,0,1,.624,2.212q.127.57.225,1.147.048.291.09.584c-.086-.612,0,.055.011.152.072.815.122,1.627.125,2.446.013,3.088,4.813,3.094,4.8,0Z"/><path class="f" d="M84.005,231.393c10.72-.041,52.237,17.5,53.679,17.935,3.615,1.095,21.159-6.2,21.278-6.614.067-.23-3.9-12.135-3.863-12.541.047-.59,8.184-2.921,7.6-3.882-3.245-5.356-8.1-11.215-13.681-13.881,2.877-2.062,6.742-3.054,5.3-4.924-2.553-3.32-7.119-7.531-12.553-8.688-9.427-2.007-16-1.117-24.316,2.851a140.607,140.607,0,0,0-34.262,22.678"/><path class="b" d="M84.005,233.793a17.723,17.723,0,0,1,1.9.129c.427.048-.549-.092.068.012.164.027.329.051.494.078.439.073.877.155,1.314.243,1.947.392,3.87.9,5.78,1.437,4.727,1.339,9.384,2.924,14.01,4.572,8.572,3.054,17.041,6.387,25.48,9.789,1.762.711,3.635,1.773,5.581,1.787a22.02,22.02,0,0,0,5.979-1.1c2.38-.673,4.722-1.483,7.04-2.343q3.182-1.181,6.3-2.524c1.181-.51,2.651-.968,3.209-2.235.621-1.412-.441-3.512-.87-4.863-.685-2.153-1.382-4.3-2.059-6.458-.235-.744-.431-1.509-.686-2.246-.043-.124-.042-.383-.122-.481.332.405-1.728,2.649-.73,2.35a4.343,4.343,0,0,0,.534-.255c.234-.109-.139.057-.152.062.126-.052.253-.1.379-.154l.621-.245c.567-.222,1.136-.44,1.7-.664a28.24,28.24,0,0,0,3.241-1.414,3.776,3.776,0,0,0,2.029-2.223c.456-1.762-1.277-3.611-2.217-4.948a41.662,41.662,0,0,0-7.838-8.66,25.71,25.71,0,0,0-4.759-3.1v4.144c2.1-1.458,5.811-2.509,6.649-5.22.831-2.685-2.291-5.33-4.041-6.944a25.276,25.276,0,0,0-7.791-5.019,33.224,33.224,0,0,0-10.084-1.873,37.658,37.658,0,0,0-18.319,3.961,143.637,143.637,0,0,0-17.934,9.986A152.377,152.377,0,0,0,81.5,222.63c-2.321,2.048,1.085,5.432,3.394,3.394a142.583,142.583,0,0,1,28.565-19.707c4.976-2.589,10.11-5.192,15.742-5.934a31.871,31.871,0,0,1,8.216.071,21.749,21.749,0,0,1,7.909,2.252,23.823,23.823,0,0,1,6.522,5.508,4.894,4.894,0,0,0,.405.49q.332.366.141.2a1.392,1.392,0,0,1,.02-1.316c.1-.36.143-.025-.048.019.15-.035-.547.364-.684.447-1.288.774-2.633,1.426-3.87,2.286-1.36.945-1.744,3.289,0,4.144a28.681,28.681,0,0,1,9.852,8.636c.635.833,1.237,1.693,1.816,2.567.141.212.692,1.406.952,1.488-.235-.074.3-1.981.447-2.188-.2.283.4-.235.14-.107a27.458,27.458,0,0,1-2.864,1.315c-2.164.849-6.011,1.634-5.345,4.746.432,2.018,1.219,4.006,1.847,5.967.454,1.42.911,2.839,1.358,4.261.148.473.3.946.438,1.422s.079,1.078.114.125l.328-1.211c.3-.527,1.217-.95.376-.567-.379.172-.752.358-1.133.527q-.3.135-.608.266l-.421.181c-.357.152.544-.225-.061.024-.651.269-1.3.536-1.959.8-3.042,1.2-6.126,2.328-9.268,3.244a39.955,39.955,0,0,1-3.979.965c-.726.134.24.019-.439.062-.208.013-.416.035-.625.039-.356.005-.783-.193-.14.044-.111-.041-.239-.035-.35-.081-.948-.391-1.911-.752-2.862-1.136-11.322-4.565-22.686-9.09-34.3-12.874-3.217-1.048-6.457-2.044-9.745-2.845a31.921,31.921,0,0,0-7.373-1.154c-3.089-.007-3.094,4.793,0,4.8Z"/><path class="b" d="M117.84,217.447c-.477.065.312-.031.406-.041q.407-.042.814-.072.7-.053,1.4-.07a28.994,28.994,0,0,1,3.035.078q.7.054,1.394.142c-.477-.061.31.049.4.064q.4.066.8.142a30.092,30.092,0,0,1,2.947.726A2.426,2.426,0,0,0,132,216.74a2.45,2.45,0,0,0-1.677-2.953,32.549,32.549,0,0,0-13.756-.969,2.406,2.406,0,0,0-1.676,2.953,2.479,2.479,0,0,0,2.952,1.676Z"/><path class="g" d="M91.2,246.121a12.69,12.69,0,0,0,1.612-2.886c2.421-6.132-.711-13.11-4.952-18.158a18.322,18.322,0,0,0-7.055-5.6c-6.189-2.418-13.042.807-18.759,4.195-13.487,7.994-22.855,14.734-34.835,26.483a27.4,27.4,0,0,0-5.8,8.19c-1.279,3.132-1.13,6.746,1.088,9.3,2.592,2.983,6.82,3.425,10.756,3.07,16.778-1.512,32.345-9.068,47.311-16.8C84.492,251.89,88.645,249.583,91.2,246.121Z"/><path class="b" d="M93.272,247.333c4.133-5.775,3.112-13.011-.181-18.913-3.26-5.844-8.575-11.472-15.566-12.117s-13.533,3.373-19.262,6.841a185.048,185.048,0,0,0-15.411,10.293,168.16,168.16,0,0,0-14.716,12.494c-4.585,4.353-10.295,10.033-9.918,16.911a10.459,10.459,0,0,0,4.4,8.1A14.775,14.775,0,0,0,31.4,273.22c6.938-.106,14.059-1.913,20.624-4.041a166.567,166.567,0,0,0,22.427-9.466c6.617-3.28,14.231-6.334,18.823-12.38a2.414,2.414,0,0,0-.861-3.284,2.459,2.459,0,0,0-3.283.861A20.949,20.949,0,0,1,82.759,250c-2.693,1.561-5.5,2.934-8.278,4.336-5.665,2.86-11.4,5.61-17.315,7.915a97.588,97.588,0,0,1-18.478,5.34c-4.278.751-11.43,2.345-14.59-1.765-3.47-4.513,1.5-10.483,4.521-13.664A135.3,135.3,0,0,1,42.1,240.053a153.335,153.335,0,0,1,13.04-9.307c2.431-1.564,4.894-3.075,7.377-4.555a44.1,44.1,0,0,1,8.332-4.147c2.993-1.011,6.317-1.521,9.322-.249,2.814,1.192,5.1,3.683,6.879,6.1,3.679,4.988,6.023,11.511,2.082,17.019a2.419,2.419,0,0,0,.861,3.284A2.452,2.452,0,0,0,93.272,247.333Z"/><path class="b" d="M74.162,234.949c.29.34.576.684.854,1.035.048.061.266.339.034.043s-.02-.023.027.039c.11.148.219.3.326.448.467.657.91,1.337,1.318,2.032.194.331.371.671.537,1.018.086.18.166.363.249.544.124.273-.2-.491-.037-.084.037.095.075.189.112.283a19.735,19.735,0,0,1,.746,2.374,2.423,2.423,0,0,0,2.953,1.676,2.449,2.449,0,0,0,1.676-2.952,19.93,19.93,0,0,0-2.092-5.282,32.174,32.174,0,0,0-3.309-4.568,2.41,2.41,0,0,0-3.394,0,2.462,2.462,0,0,0,0,3.394Z"/><path class="b" d="M65.377,241.362a51.047,51.047,0,0,1,4.123,6.847,2.418,2.418,0,0,0,3.284.861,2.459,2.459,0,0,0,.861-3.284,51.215,51.215,0,0,0-4.123-6.847,2.607,2.607,0,0,0-1.435-1.1,2.452,2.452,0,0,0-1.849.242,2.421,2.421,0,0,0-1.1,1.434,2.349,2.349,0,0,0,.242,1.85Z"/><path class="h" d="M151.77,200.458a17.1,17.1,0,0,1-7.42-1.952c-6.226-3.339-16.2-2.8-23.462,2.668A25.694,25.694,0,0,0,117.673,235c3.351,4.487,8.44,7.806,12.557,9.968a25.719,25.719,0,0,0,10.391,2.885c5.21.322,11.691-.067,16.6-2.424a25.8,25.8,0,0,0,13.825-16.6c2-7.338,1.254-15.629-4.393-21.5A20.861,20.861,0,0,0,151.77,200.458Z"/><path class="b" d="M151.77,198.058a15.694,15.694,0,0,1-4.821-.983c-1.354-.518-2.6-1.277-3.965-1.779a22.624,22.624,0,0,0-8.349-1.261c-6.124.17-12.892,2.394-17.019,7.09-7.819,8.9-9.59,22.064-3.713,32.479,3.148,5.579,8.367,9.688,13.885,12.766a33.776,33.776,0,0,0,19.6,3.837,29.244,29.244,0,0,0,17.358-6.9,28.384,28.384,0,0,0,8.974-15.3c1.49-6.817.767-14.354-3.466-20.1a24.169,24.169,0,0,0-18.48-9.848c-3.088-.149-3.08,4.652,0,4.8a19.313,19.313,0,0,1,13.854,6.89c3.463,4,4.462,9.518,3.865,14.657a24.152,24.152,0,0,1-6.065,13.489,23.227,23.227,0,0,1-13.8,7.262c-5.562.861-11.834.684-17.015-1.687-4.875-2.231-9.882-5.6-13.075-9.964a23.423,23.423,0,0,1,.014-27.14,19.255,19.255,0,0,1,2.757-3.226,15.566,15.566,0,0,1,3.79-2.305,21.474,21.474,0,0,1,8.175-1.986,18.394,18.394,0,0,1,7.732,1.19c1.377.56,2.651,1.325,4.069,1.81a20.949,20.949,0,0,0,5.694,1.01C154.857,203.019,154.848,198.219,151.77,198.058Z"/><path class="b" d="M146.183,198.575a16.131,16.131,0,0,0-5.755,3.353,2.4,2.4,0,0,0,0,3.394,2.414,2.414,0,0,0,1.7.7,2.612,2.612,0,0,0,1.7-.7q.39-.351.8-.671l-.486.375a13.374,13.374,0,0,1,2.914-1.7l-.573.241q.483-.2.979-.367a2.538,2.538,0,0,0,1.435-1.1,2.453,2.453,0,0,0,.242-1.849,2.4,2.4,0,0,0-2.953-1.676Z"/><path class="b" d="M146.8,203.322a13.632,13.632,0,0,1,.908,1.751l-.242-.573a13.4,13.4,0,0,1,.929,3.364,2.393,2.393,0,0,0,1.1,1.434,2.4,2.4,0,0,0,3.284-.861l.242-.573a2.423,2.423,0,0,0,0-1.276,14.966,14.966,0,0,0-2.079-5.689,2.509,2.509,0,0,0-1.434-1.1,2.458,2.458,0,0,0-1.85.242,2.43,2.43,0,0,0-1.1,1.435,2.47,2.47,0,0,0,.242,1.849Z"/><path class="b" d="M141.2,191.237a29.792,29.792,0,0,1,1.324,2.734l-.242-.573a29.491,29.491,0,0,1,1.636,5.242,2.416,2.416,0,0,0,2.952,1.676,2.456,2.456,0,0,0,1.676-2.952,31.425,31.425,0,0,0-3.2-8.55,2.423,2.423,0,0,0-3.284-.861,2.451,2.451,0,0,0-.861,3.284Z"/><path class="b" d="M155.3,189.944q-3.294,4.044-6.463,8.189a2.4,2.4,0,0,0-.242,1.849,2.4,2.4,0,0,0,2.952,1.677,2.842,2.842,0,0,0,1.434-1.1q.414-.54.83-1.078l-.376.486q2.587-3.346,5.259-6.626a2.588,2.588,0,0,0,.7-1.7,2.4,2.4,0,0,0-4.1-1.7Z"/><path class="g" d="M151.816,267.927c-4.135-5.451-5.428-12.028-4.513-19.113A28.417,28.417,0,0,1,163,227.187a22.087,22.087,0,0,1,15.987-.606c1.124-1.369,2.1-3.6,3.055-4.363,1.13-.9,1.669-.765,2.891,0,2.178,1.372,5.43,3.4,7.535,4.885a.608.608,0,0,1,.293.823c-.387,1.541-.8,3.144-1.094,4.368a21.444,21.444,0,0,1,7.636,9.735c3.229,8.4,2.217,18.446-3.138,25.674s-17.654,12.909-28.777,10.053c-3.137-.427-8.574-3.254-11.059-5.242A26.031,26.031,0,0,1,151.816,267.927Z"/><path class="b" d="M153.888,266.716c-4.84-6.5-5.63-15.1-2.988-22.668,2.328-6.673,7.95-13.17,14.825-15.364a19.469,19.469,0,0,1,12.623.212,2.312,2.312,0,0,0,2.335-.618c.92-1.174,1.61-2.466,2.462-3.682.457-.653-.022.036.4-.509.309-.4.445-.044.115-.154s-.743-.191-.288.15c.277.206.62.382.913.567,1.192.749,2.383,1.5,3.566,2.261q.825.531,1.645,1.072.46.306.92.616c.258.176.857.824.287.039l-.327-1.211q.141-.316.01.1c-.058.232-.117.465-.176.7q-.146.573-.292,1.148c-.193.762-.384,1.526-.567,2.291a2.5,2.5,0,0,0,1.1,2.71c9.1,6.709,10.609,20.355,5.132,29.844-5.278,9.143-17.315,13.446-27.368,11.28a24.813,24.813,0,0,1-14.331-8.777,2.479,2.479,0,0,0-3.283-.861,2.415,2.415,0,0,0-.861,3.283,30.421,30.421,0,0,0,34.473,9.825,29.953,29.953,0,0,0,14.474-10.681,29.9,29.9,0,0,0,1.753-29.533,24.959,24.959,0,0,0-7.567-8.525l1.1,2.711c.541-2.262,2.235-5.654.184-7.526a42.516,42.516,0,0,0-6.058-4.024c-1.975-1.247-4.12-2.966-6.522-1.719-2.177,1.13-2.871,3.4-4.3,5.218l2.335-.617a23.948,23.948,0,0,0-13.494-.662,25.837,25.837,0,0,0-11.558,6.447,31.234,31.234,0,0,0-9.924,24.174,26.621,26.621,0,0,0,5.1,14.912,2.474,2.474,0,0,0,3.283.861A2.416,2.416,0,0,0,153.888,266.716Z"/><path class="b" d="M167.666,233.186a34.143,34.143,0,0,0-6.351,7.3,26.225,26.225,0,0,0-3.465,10.057,2.475,2.475,0,0,0,1.676,2.953,2.419,2.419,0,0,0,2.952-1.677,32.528,32.528,0,0,1,1.087-4.744,16.008,16.008,0,0,1,1.894-4.167q.587-.915,1.228-1.8l.266-.36c.16-.215-.18.216.095-.121.208-.255.416-.508.631-.755a35.717,35.717,0,0,1,3.382-3.3,2.4,2.4,0,0,0-3.4-3.394Z"/><path class="b" d="M175.142,238.646a14.582,14.582,0,0,0-3.877,4.391,18.794,18.794,0,0,0-1.953,4.9,2.4,2.4,0,1,0,4.629,1.276,17.192,17.192,0,0,1,.871-2.635l-.242.573a15.266,15.266,0,0,1,1.531-2.774c.07-.1.143-.2.215-.3.267-.363-.346.421-.075.1.183-.217.364-.433.559-.64q.249-.263.515-.509c.16-.148.931-.755.25-.238a2.63,2.63,0,0,0,1.1-1.434,2.452,2.452,0,0,0-.242-1.849,2.417,2.417,0,0,0-1.434-1.1,2.323,2.323,0,0,0-1.85.242Z"/><path class="i" d="M42.576,267.817c.068-5.148,2.343-9.649,6.163-13.431a21.385,21.385,0,0,1,19.32-5.575,18.673,18.673,0,0,1,10.089,6.814,35.317,35.317,0,0,1,4.112,7.991,23.264,23.264,0,0,1,.1,11.208A19.5,19.5,0,0,1,69,288.2c-6.522,1.813-16.449-.5-21.73-7.344-1.664-1.7-3.583-5.9-4.138-8.227A19.606,19.606,0,0,1,42.576,267.817Z"/><path class="b" d="M44.976,267.817c.2-8.12,6.81-14.83,14.491-16.61a16.2,16.2,0,0,1,11.19,1.143A16.335,16.335,0,0,1,78,259.957,17.525,17.525,0,0,1,80.551,271.1a16.308,16.308,0,0,1-3.921,9.442c-4.6,5.391-11.36,6.937-18,5.015a18.665,18.665,0,0,1-13.656-17.738c.005-3.088-4.8-3.093-4.8,0A23.428,23.428,0,0,0,54.62,289.205c8.018,3.352,17.167,2.423,23.711-3.525a21.731,21.731,0,0,0,6.6-11.281,25.03,25.03,0,0,0,.356-7.2,21.061,21.061,0,0,0-1.8-6.85c-1.9-4.328-4.171-7.812-8-10.623a20.029,20.029,0,0,0-13.979-3.678c-11.164,1.138-21.05,10.215-21.33,21.77C40.1,270.907,44.9,270.906,44.976,267.817Z"/><path class="f" d="M156.729,246.8a77.371,77.371,0,0,0-.41-12.6,10.341,10.341,0,0,0-1.048-3.794,8.885,8.885,0,0,0-3.894-3.184,30.957,30.957,0,0,0-20.411-2.524l-.1-6.286c-12.588-1.34-30.024,4.232-37.809,15.888,0,0-18.507,24.262,11.192,33.785C153.322,283.818,156.729,246.8,156.729,246.8Z"/><path class="j" d="M133,241.2c-3.487.058-7.508,3.394-9.53,5.633-.982,1.087-1.492,1.915-1.242,1.985,2.641.736,5.367,1.5,7.506,3.222,2.114,1.7,3.521,4.581,2.68,7.159-.185.567-.468,1.2-.179,1.726a1.908,1.908,0,0,0,.966.695c6.6,2.95,11.14,9.377,13.463,16.227s2.723,14.178,3.1,21.4a17.569,17.569,0,0,1,.021,2.469l7.126-5.432c9.591-11.328,11.326-28.652,4.05-40.077C154.184,245.571,145.118,241,133,241.2Z"/><path class="b" d="M130.252,243.723a35.722,35.722,0,0,1,14.123,1.517,26.222,26.222,0,0,1,10.756,7.232,29.366,29.366,0,0,1,6.918,12.245,32.33,32.33,0,0,1,.39,14.358,34.4,34.4,0,0,1-7.226,15.513,2.465,2.465,0,0,0,0,3.394,2.419,2.419,0,0,0,3.394,0,39.427,39.427,0,0,0,8.539-32.493c-1.979-10.184-9.425-19.77-19-23.9a38.333,38.333,0,0,0-17.9-2.668,2.457,2.457,0,0,0-2.4,2.4,2.42,2.42,0,0,0,2.4,2.4Z"/><path class="f" d="M98.1,311.613a52.612,52.612,0,0,1-16.881-10.837c-3.974-3.653-6.594-9.683-7.336-11.9a50.643,50.643,0,0,1,3.834-40.431c2.854-5.068,7.14-9.955,12.887-10.852,3.09-.482,6.435,1.319,9.52.8,2.444-.406,4.661-2.657,7.12-2.347,7.042.887,9.406,13.048,12.722,12.108,3.268,1.023,7.007,1.66,9.767,3.876,2.114,1.7,3.521,4.581,2.68,7.159-.185.567-.468,1.2-.179,1.726a1.908,1.908,0,0,0,.966.695c6.6,2.95,11.14,9.377,13.463,16.227s2.723,14.178,3.1,21.4c.04.758-.326,5.747-3.66,7.949a44.665,44.665,0,0,1-25.73,7.612C113.514,314.769,106.149,314.688,98.1,311.613Z"/><path class="b" d="M117.208,241.805c-2.029-3.272-4.529-6.824-8.454-7.888a8.494,8.494,0,0,0-6.115.887c-1.771.85-3.057,1.492-5.074,1.192-2.176-.323-4.334-1.039-6.56-.848a14.882,14.882,0,0,0-5.815,1.827,24.287,24.287,0,0,0-8.358,8.3c-8.737,13.405-10.611,32.4-4.124,47.1a32.866,32.866,0,0,0,5.761,9.052,50.947,50.947,0,0,0,10.585,8.366,49.005,49.005,0,0,0,20.045,6.893,71.064,71.064,0,0,0,20.667-.293,46.233,46.233,0,0,0,12.618-4.209c3.434-1.723,6.968-3.681,8.554-7.356a17.38,17.38,0,0,0,1.075-8.346,94.228,94.228,0,0,0-1.651-14.163c-1.684-7.933-5.475-15.617-12.122-20.516a21.329,21.329,0,0,0-2.17-1.412c-.634-.358-1.757-.662-2.141-1.159l.617,1.059q-.12.558.061-.1.1-.258.168-.524a8.324,8.324,0,0,0,.234-1.35,7.944,7.944,0,0,0-.185-2.611,10.2,10.2,0,0,0-2.45-4.46c-2.423-2.668-6.062-3.77-9.42-4.714-2.979-.837-4.25,3.793-1.276,4.629,3.137.881,7.79,2.029,8.518,5.821a4.239,4.239,0,0,1-.272,2.111,3.693,3.693,0,0,0,.61,3.536c1.168,1.325,3.224,1.885,4.682,2.89,6.427,4.43,9.485,12.268,10.829,19.658a106.673,106.673,0,0,1,1.294,13.616c.021.419.007.8-.007,1.217-.018.537.061-.247-.023.22-.055.311-.111.62-.183.927a7.231,7.231,0,0,1-1.524,3.322c-1.218,1.392-3.251,2.311-4.864,3.163a38.934,38.934,0,0,1-5.8,2.484,44.13,44.13,0,0,1-12.417,2.256,69.234,69.234,0,0,1-18-1.315,46.778,46.778,0,0,1-19.788-10.367,28.051,28.051,0,0,1-6.961-8.816,35.753,35.753,0,0,1-3.01-8.871,48.491,48.491,0,0,1,1.158-24.335A43.729,43.729,0,0,1,80.976,247.7c1.892-2.9,4.443-5.8,7.741-7.111A9.089,9.089,0,0,1,94.1,240.2a17.844,17.844,0,0,0,6.663.518c1.927-.352,3.458-1.68,5.314-2.169,1.429-.376,2.786.481,3.8,1.439a20.777,20.777,0,0,1,3.2,4.239c1.625,2.62,5.779.213,4.144-2.422Z"/><path class="b" d="M95.128,235.507c3.774-5.573,9.782-9.478,16-11.841a43.493,43.493,0,0,1,19.738-2.858l-2.4-2.4.1,6.286a2.433,2.433,0,0,0,3.038,2.314,27.963,27.963,0,0,1,19.606,2.845,4.672,4.672,0,0,1,2.5,3.237c.1.431.163.87.232,1.307l.063.437q-.052-.389.006.081.1.908.171,1.818a80.491,80.491,0,0,1,.148,10.065c-.149,3.088,4.652,3.08,4.8,0a76.521,76.521,0,0,0-.26-11.329,19.382,19.382,0,0,0-.905-4.916,9.43,9.43,0,0,0-3.992-4.64c-6.851-4.308-15.862-5.2-23.644-3.534l3.038,2.315-.1-6.286a2.466,2.466,0,0,0-2.4-2.4,47.3,47.3,0,0,0-33.045,9.731,32.57,32.57,0,0,0-6.836,7.345c-1.737,2.565,2.42,4.969,4.145,2.423Z"/><path class="b" d="M93.806,288.351c1.151-10.653,5.586-21.672,12.814-29.668,2.067-2.286-1.318-5.691-3.394-3.394-8.145,9.01-12.922,21.051-14.22,33.062a2.415,2.415,0,0,0,2.4,2.4,2.456,2.456,0,0,0,2.4-2.4Z"/><path class="b" d="M99.664,294.085a44.386,44.386,0,0,0,23.772-8.195,2.47,2.47,0,0,0,.861-3.284,2.419,2.419,0,0,0-3.284-.861,39.826,39.826,0,0,1-21.349,7.54c-3.076.146-3.093,4.946,0,4.8Z"/><path class="c" d="M21.013,295.287A42.99,42.99,0,0,1,16.156,282.3s0-1.082,0-2.665c18.276,20.086,69.709,21.4,92.382,21.4,22.452,0,80.354-2.175,101.886-21.334-.007,1.528-.007,2.6-.007,2.6s-6.069,53.615-96.313,52.382C52.828,335.517,29.607,311.07,21.013,295.287Z"/><path class="b" d="M13.842,282.936a29.166,29.166,0,0,0,1.465,5.405A56.391,56.391,0,0,0,22.145,301.7a68.318,68.318,0,0,0,15.764,16.059,90.393,90.393,0,0,0,27.483,13.335c13.761,4.18,28.267,5.784,42.608,5.988,15.515.222,31.086-.323,46.273-3.774a97.6,97.6,0,0,0,30.3-12.029A67.626,67.626,0,0,0,202.1,305.684a58.029,58.029,0,0,0,8.421-14.768,37.19,37.19,0,0,0,2.164-7.649c.05-.322.095-.645.132-.969a2.415,2.415,0,0,0-2.4-2.4,2.457,2.457,0,0,0-2.4,2.4c-.03.261.153-.937.031-.249-.064.356-.123.712-.2,1.066a37.978,37.978,0,0,1-1.024,3.869q-.428,1.343-.936,2.656-.138.359-.282.715c-.046.114-.093.227-.139.341-.211.525.108-.24.013-.028-.23.513-.449,1.032-.687,1.542a54.407,54.407,0,0,1-3.879,6.944q-.608.926-1.252,1.827-.333.466-.675.925c-.108.145-.218.289-.326.434-.4.539.189-.23-.153.2-1.047,1.315-2.126,2.6-3.271,3.832q-1.86,2.006-3.893,3.841-1.059.959-2.159,1.869-.567.469-1.143.926c-.1.08-.566.444-.385.3.146-.112-.431.328-.558.423a82.625,82.625,0,0,1-25.9,12.772c-13.264,4.047-27.171,5.577-41,5.774-15.132.217-30.306-.259-45.123-3.6a95.185,95.185,0,0,1-29.523-11.546q-2.769-1.7-5.385-3.641c-.191-.142-.382-.285-.571-.428-.124-.094-.595-.458-.234-.178q-.627-.487-1.242-.989-1.157-.942-2.271-1.934a64.091,64.091,0,0,1-7.319-7.671c-.138-.172-.88-1.125-.455-.569-.234-.307-.467-.614-.7-.924q-.687-.929-1.337-1.884-1.188-1.746-2.247-3.575Q22.847,293.7,22.012,292q-.373-.76-.722-1.532c-.11-.244-.217-.49-.325-.735a1.41,1.41,0,0,1-.118-.279,47.835,47.835,0,0,1-2.316-7.441c-.027-.115-.044-.235-.061-.353a2.415,2.415,0,0,0-2.952-1.676,2.463,2.463,0,0,0-1.676,2.952Z"/><path class="b" d="M7.156,262.82a27.684,27.684,0,0,0,8.551,19.807c5.817,5.69,13.409,9.3,21.007,11.957a139.783,139.783,0,0,0,26.669,6.094c9.011,1.271,18.085,2.017,27.175,2.4,6.863.292,13.736.395,20.6.346q10.895-.079,21.775-.75c9.148-.565,18.277-1.455,27.346-2.783a178.835,178.835,0,0,0,26.845-5.8c7.605-2.346,15.3-5.373,21.758-10.11,5.453-4,10.149-9.357,11.61-16.13a24.44,24.44,0,0,0,.547-5.037c.014-3.089-4.786-3.093-4.8,0,0,.767-.051,1.527-.121,2.291-.011.114-.1.745-.008.105-.028.184-.056.367-.088.55q-.109.636-.26,1.263a20.117,20.117,0,0,1-.625,2.093c-.059.166-.475,1.188-.223.606q-.234.541-.5,1.069c-.312.626-.656,1.236-1.027,1.829q-.293.47-.608.924c-.106.152-.214.3-.323.454-.065.09-.568.739-.189.259a29.367,29.367,0,0,1-3.3,3.513c-.547.5-1.113.971-1.687,1.437-.052.042-.59.46-.162.131q-.246.189-.5.374-.591.438-1.2.855a50.918,50.918,0,0,1-4.678,2.849,69.128,69.128,0,0,1-10.4,4.555c-16.727,5.951-34.411,8.182-51.9,9.52a407.8,407.8,0,0,1-41.7,1c-17.412-.452-34.659-1.757-51.446-6.288-7.893-2.131-15.161-4.738-21.9-9.421-5.283-3.672-9.58-8.8-10.972-15.215-.089-.413-.162-.828-.235-1.244-.013-.072-.11-.774-.037-.208q-.04-.321-.073-.644c-.089-.882-.128-1.767-.132-2.653-.012-3.088-4.812-3.095-4.8,0Z"/><path class="b" d="M73.85,316.457a252.178,252.178,0,0,0,37.328,2.451,293.649,293.649,0,0,0,31.126-1.623,206.506,206.506,0,0,0,21.732-3.4c3.018-.654,1.741-5.282-1.276-4.629a224.493,224.493,0,0,1-36.016,4.448c-9.765.5-19.561.548-29.331.138a210.566,210.566,0,0,1-22.287-2.011,2.479,2.479,0,0,0-2.952,1.677,2.418,2.418,0,0,0,1.676,2.952Z"/><path class="b" d="M136.32,310.5c-.013.644-.048,1.286-.114,1.926-.017.16-.035.32-.055.48q.048-.36-.016.078c-.056.317-.107.634-.171.95a22.928,22.928,0,0,1-1.038,3.588c-.03.079-.322.792-.168.433q-.191.443-.4.877-.421.867-.916,1.7t-1.056,1.615c-.094.13-.189.26-.286.388l-.068.086c-.2.249-.41.5-.621.739a2.4,2.4,0,0,0,3.394,3.394A25.573,25.573,0,0,0,141.12,310.5a2.4,2.4,0,0,0-4.8,0Z"/><path class="b" d="M149.656,307.96c.009,1.215-.016,2.429-.108,3.64q-.034.456-.082.91c-.009.089-.128,1-.053.493-.082.561-.18,1.12-.3,1.674s-.256,1.1-.418,1.634c-.086.286-.178.569-.278.85-.028.08-.352.914-.164.464a14.418,14.418,0,0,1-1.786,3.081,2.406,2.406,0,0,0,.861,3.283,2.471,2.471,0,0,0,3.283-.861c3.23-4.3,3.883-9.948,3.844-15.168a2.4,2.4,0,1,0-4.8,0Z"/><path class="a" d="M203.866,297.932c2.351-22.487,20.635-19.671,17.717,5.327,0,6.347-3.145,14.844-8.7,20.588-6.483,6.7-15.94,10.085-22.715,8.547-14.311.165-29.668-19.71-10.346-25.975,3.558-1.827,3.747-9.253,9.479-7.307,2.284-4.854,8.935-3.635,12.29-.52"/><path class="a" d="M24.865,298.382c-2.42-23.149-21.242-20.251-18.238,5.483,0,6.534,3.237,15.281,8.957,21.193,6.675,6.9,16.409,10.382,23.384,8.8,14.732.17,30.54-20.29,10.65-26.739-3.662-1.881-3.856-9.525-9.757-7.522-2.352-5-9.2-3.742-12.652-.535"/><path class="b" d="M200.757,328.983a19.029,19.029,0,0,1-9.567,1.178c-2.3-.407-3.757-.25-6.015-.983a20.382,20.382,0,0,1-9.228-6.358,15.008,15.008,0,0,1-1.317-1.906c-.238-.4-.456-.818-.659-1.241.018.038-.281-.649-.156-.341.076.185-.168-.469-.2-.555a11.6,11.6,0,0,1-.348-1.268c-.037-.175-.069-.351-.1-.528-.067-.407.029.571,0-.1-.022-.42-.034-.832-.02-1.253,0,0,.062-.675.016-.3-.038.31.085-.425.1-.5.047-.2.111-.4.166-.6.017-.063.263-.711.055-.216a7.518,7.518,0,0,1,.5-.959c.115-.191.238-.378.369-.559-.277.383.182-.217.2-.238a12.034,12.034,0,0,1,1.05-1.032,9.429,9.429,0,0,1,1.034-.74c.417-.263.847-.5,1.287-.728,1.112-.566,2.417-.817,3.468-1.477,1.941-1.218,2.949-3.341,4.11-5.223.122-.2.251-.394.376-.591.049-.077.438-.6.158-.247.136-.173.29-.327.434-.492q.148-.153.309-.294-.321.231.015,0a2.028,2.028,0,0,1,.361-.2c-.6.285.667-.1.031-.02a2.533,2.533,0,0,1,1.473.221,2.418,2.418,0,0,0,2.71-1.1,3.214,3.214,0,0,1,2.641-2.029,7.41,7.41,0,0,1,3.788.641c1.195.527,2,1.544,3.232,2.159,2.472,1.234,4.928-.67,5.234-3.162a27,27,0,0,1,2.221-8.386,15.649,15.649,0,0,1,.931-1.618c.139-.211.284-.419.435-.622.222-.3-.225.27.01-.006.109-.128.216-.256.328-.381a10.135,10.135,0,0,1,1.093-1.04c-.357.293-.043.032.151-.09.213-.133.436-.25.649-.382.09-.055.2-.095.292-.142-.057.028-.522.185-.134.061.2-.063.392-.126.591-.184.1-.028.7-.136.273-.072-.395.059.294-.012.421-.012.2,0,.392.019.589.032-.45-.03-.287-.057.019.03.192.055.383.119.575.173.091.025.4.171.068.021-.362-.163.064.035.134.081.176.115.367.221.548.328.093.054.182.126.269.188-.007,0-.355-.294-.155-.116a13.3,13.3,0,0,1,1.068,1.069c.243.27-.146-.257.208.279.131.2.262.393.385.6a12.893,12.893,0,0,1,.846,1.65c-.166-.393.165.461.19.533.1.275.187.554.271.834a22.316,22.316,0,0,1,.539,2.225,26.745,26.745,0,0,1,.413,4.665c.026,1.99-.232,3.947-.314,5.927a25.2,25.2,0,0,1-.715,5.1,28.842,28.842,0,0,1-17.708,20.307,2.465,2.465,0,0,0-1.676,2.952,2.419,2.419,0,0,0,2.952,1.676,33.629,33.629,0,0,0,19.947-20.089c1.535-4.1,1.927-8.286,2.22-12.612a32.668,32.668,0,0,0-.993-11.308c-1.328-4.532-4.8-9.795-10.2-9.318-5.827.516-9.043,6.428-10.442,11.476a30.987,30.987,0,0,0-.684,3.1c-.113.664-.205,1.332-.291,2a5.9,5.9,0,0,0-.087.708q-.129.777.131-.105.164-1.092,1.557-.63c.014-.056.278.32.093.058a3.523,3.523,0,0,0-.638-.539,14.411,14.411,0,0,0-1.307-.945,13.618,13.618,0,0,0-2.956-1.358c-4.172-1.371-9.072-.317-11.159,3.848l2.711-1.1a6.533,6.533,0,0,0-7.008,1.691,15.725,15.725,0,0,0-1.874,2.653c-.263.444-.517.894-.787,1.334-.122.2-.249.4-.376.594-.063.1-.13.191-.2.285-.224.317.206-.238-.034.055a6.394,6.394,0,0,1-.441.49c-.079.079-.493.407-.323.3.141-.09-.166.058-.227.08-.433.155-.861.316-1.285.49a19.271,19.271,0,0,0-3.637,1.88,12.376,12.376,0,0,0-4.49,5.138c-3.858,8.84,4.808,17.884,12.332,21.13a22.969,22.969,0,0,0,7.931,1.872,40.519,40.519,0,0,0,5.588.314,27.387,27.387,0,0,0,6.923-1.49,2.459,2.459,0,0,0,1.676-2.952A2.421,2.421,0,0,0,200.757,328.983Z"/><path class="b" d="M28.047,330.413a29.447,29.447,0,0,1-17.5-18.32,41.438,41.438,0,0,1-1.78-11.325,28.273,28.273,0,0,1,.94-9.841,10.06,10.06,0,0,1,3.073-5.1c-.39.341-.012,0,.179-.115s.368-.211.548-.321c.488-.3-.141.015.13-.071.215-.068.428-.134.645-.2.306-.087.466-.064.017-.031.2-.014.39-.034.587-.035s.393.017.59.029c-.747-.045.029.019.248.077.2.053.392.126.588.19.343.11-.382-.252.156.086.188.117.389.214.576.335.168.108.622.462.221.135a10.391,10.391,0,0,1,1.091,1.028c.182.2.356.4.523.613-.29-.365.283.415.375.556a21.037,21.037,0,0,1,2.916,8.154c.38,2.142.294,4.636,2.786,5.473a3.689,3.689,0,0,0,3.558-.646,12.83,12.83,0,0,1,1.63-1.228,7.94,7.94,0,0,1,4.52-1.2,3.487,3.487,0,0,1,3.129,2.151,2.415,2.415,0,0,0,2.71,1.1,2.854,2.854,0,0,1,1.265-.245.991.991,0,0,1,.477.118,3.542,3.542,0,0,1,1.266,1.329c1.1,1.663,1.917,3.549,3.379,4.951,1.7,1.633,4.206,1.991,6.174,3.263a9.573,9.573,0,0,1,2.054,1.78c.5.554-.226-.352.2.238q.131.181.251.371.178.276.335.567c.048.088.394.89.2.4a9.973,9.973,0,0,1,.359,1.2s.12.666.064.293.024.3.025.3c.022.419.014.831,0,1.251,0,.079-.09.771-.007.2-.042.284-.1.566-.163.845a11.434,11.434,0,0,1-2.068,4.411,21.261,21.261,0,0,1-8.861,6.955,20.151,20.151,0,0,1-3.267,1,14.073,14.073,0,0,1-2.96.319,44.945,44.945,0,0,1-5.148.329,23.081,23.081,0,0,1-6.03-1.374,2.4,2.4,0,0,0-1.276,4.629,24.365,24.365,0,0,0,11.869,1.312c2.4-.378,4.752-.419,7.1-1.223a25.6,25.6,0,0,0,11.689-8.153c2.775-3.5,4.689-7.952,3.642-12.477a11.279,11.279,0,0,0-3.411-5.656c-2.1-1.912-4.715-2.9-7.1-3.958a1.511,1.511,0,0,1-.265-.177c.2.146.123.1-.008-.041-.179-.188-.359-.369-.525-.569-.245-.3.188.259-.041-.059-.09-.126-.177-.256-.263-.385-.153-.232-.3-.468-.442-.7-.617-1.017-1.176-2.061-1.891-3.014a6.808,6.808,0,0,0-7.9-2.655l2.71,1.1c-1.936-3.87-6.192-5.081-10.209-4.251a12.981,12.981,0,0,0-5.083,2.31c-.193.145-1.011.645-1.129.92-.035.081.216-.083.529-.116l.424-.054a.891.891,0,0,1,.72.843l.08.345q-.036-.359-.081-.715c-.039-.33-.085-.66-.13-.99-.077-.565-.16-1.129-.259-1.692-.981-5.538-3.6-12.47-9.5-14.363-5.214-1.672-9.551,2.45-11.438,6.917a27.826,27.826,0,0,0-1.944,10.37c-.037,2.21.261,4.385.328,6.585a29.773,29.773,0,0,0,.939,6.386,34.72,34.72,0,0,0,21.6,24.162,2.422,2.422,0,0,0,2.952-1.676A2.452,2.452,0,0,0,28.047,330.413Z"/></svg>